<svg width="215" height="215" viewBox="0 0 215 215" xmlns="http://www.w3.org/2000/svg" fill="none"><path d="M121.533 126.866l-1.252-.956.472 1.503 14.227 45.273-22.759-41.642-.756-1.382-.18 1.565-5.417 47.145-3.854-47.298-.128-1.571-.801 1.357-24.125 40.865 15.717-44.776.522-1.487-1.284.914-38.66 27.52 32.571-34.513 1.081-1.146-1.544.313-46.511 9.416 43.792-18.282 1.454-.607-1.538-.342-46.32-10.316 47.442 1.111 1.575.037-1.266-.938-38.12-28.264 42.889 20.311 1.424.674-.775-1.372-23.328-41.325 30.919 36 1.027 1.195-.15-1.568-4.503-47.241 13.604 45.463.452 1.509.501-1.494 15.101-44.988-6.064 47.066-.201 1.563 1.065-1.161 32.094-34.957-24.683 40.531-.819 1.346 1.445-.627 43.537-18.881-39.034 26.987-1.296.896 1.576.015 47.452.46-46.636 8.777-1.548.292 1.433.655 43.163 19.72-46.174-10.95-1.533-.364 1.043 1.181 31.41 35.573-37.729-28.785z" stroke="#B5CFD3"/></svg>