<svg width="172" height="171" viewBox="0 0 172 171" xmlns="http://www.w3.org/2000/svg" fill="none"><path d="M85.983 0l5.774 58.817 29.198-51.384-18.648 56.081 47.573-35.065-39.846 43.647 57.723-12.684-54.154 23.667 57.891 11.891-59.098-.406 48.05 34.409-53.825-24.408 29.901 50.978-39.243-44.19 6.58 58.732-17.876-56.331-17.877 56.331 6.581-58.732-39.243 44.19 29.9-50.978-53.824 24.408 48.05-34.409-59.098.406 57.891-11.891-54.154-23.667 57.723 12.684-39.846-43.647 47.573 35.065-18.648-56.081 29.198 51.384 5.774-58.817z" fill="#B5CFD3"/></svg>