<svg width="30" height="30" viewBox="0 0 30 30" xmlns="http://www.w3.org/2000/svg" fill="none"><path d="M18.536 7.878c-.922-.043-1.2-.05-3.536-.05-2.336 0-2.613.009-3.535.05-2.374.109-3.479 1.232-3.587 3.587-.041.922-.051 1.199-.051 3.535 0 2.336.01 2.613.051 3.536.109 2.349 1.209 3.479 3.587 3.587.921.041 1.199.051 3.535.051 2.337 0 2.614-.009 3.536-.051 2.374-.107 3.477-1.235 3.587-3.587.041-.922.05-1.2.05-3.536 0-2.336-.009-2.613-.05-3.535-.11-2.354-1.216-3.479-3.587-3.587zm-3.536 11.616c-2.481 0-4.494-2.011-4.494-4.494 0-2.481 2.013-4.492 4.494-4.492s4.494 2.011 4.494 4.492-2.012 4.494-4.494 4.494zm4.671-8.114c-.58 0-1.05-.47-1.05-1.05 0-.58.47-1.05 1.05-1.05.58 0 1.05.47 1.05 1.05 0 .579-.47 1.05-1.05 1.05zm-1.755 3.62c0 1.611-1.306 2.916-2.916 2.916-1.61 0-2.916-1.305-2.916-2.916s1.306-2.916 2.916-2.916c1.61 0 2.916 1.305 2.916 2.916zm-2.916-15c-8.284 0-15 6.716-15 15 0 8.284 6.716 15 15 15 8.284 0 15-6.716 15-15 0-8.284-6.716-15-15-15zm8.698 18.608c-.144 3.181-1.915 4.944-5.089 5.09-.934.042-1.232.052-3.609.052-2.376 0-2.674-.01-3.607-.052-3.18-.146-4.944-1.911-5.09-5.09-.043-.933-.053-1.231-.053-3.608 0-2.376.01-2.674.053-3.607.146-3.18 1.911-4.944 5.09-5.089.934-.044 1.231-.054 3.607-.054 2.376 0 2.675.01 3.609.054 3.181.146 4.946 1.915 5.089 5.089.042.934.052 1.231.052 3.607 0 2.376-.01 2.675-.052 3.608z" fill="#E46A4F"/></svg>