<svg width="24" height="24" viewBox="0 0 24 24" xmlns="http://www.w3.org/2000/svg" fill="none"><circle cx="12" cy="12" r="11.5" stroke="#4A7987"/><path d="M9.094 10.359c.22-.22.463-.4.722-.543 1.443-.795 3.294-.372 4.222 1.034l-1.123 1.123c-.322-.734-1.122-1.152-1.917-.974-.3.067-.584.216-.817.449l-2.152 2.153c-.653.654-.653 1.717 0 2.37.654.653 1.716.653 2.37 0l.664-.664c.604.24 1.25.335 1.889.288l-1.465 1.465c-1.255 1.255-3.291 1.255-4.546 0-1.255-1.256-1.255-3.291 0-4.547l2.152-2.153zm3.418-3.418l-1.464 1.464c.639-.048 1.286.048 1.889.287l.663-.663c.653-.654 1.716-.654 2.37 0 .654.653.654 1.716 0 2.37l-2.152 2.152c-.655.656-1.72.65-2.37 0-.152-.151-.282-.34-.364-.525l-1.123 1.123c.118.179.24.333.398.491.406.406.923.708 1.518.852.771.185 1.597.083 2.306-.309.259-.143.503-.324.722-.543l2.152-2.152c1.256-1.255 1.256-3.291.001-4.546-1.256-1.255-3.291-1.255-4.546 0z" fill="#4A7987" clip-path="url(#a)"/><defs><clipPath id="a"><path fill="#fff" d="M6 6h12v12h-12z"/></clipPath></defs></svg>