<svg width="30" height="30" viewBox="0 0 30 30" xmlns="http://www.w3.org/2000/svg" fill="none"><path d="M15 0c-8.284 0-15 6.716-15 15 0 8.284 6.716 15 15 15 8.284 0 15-6.716 15-15 0-8.284-6.716-15-15-15zm7.582 12.056c.229 5.05-3.537 10.68-10.205 10.68-2.027 0-3.914-.595-5.502-1.614 1.905.225 3.806-.305 5.315-1.486-1.57-.029-2.896-1.067-3.355-2.494.564.108 1.119.076 1.622-.061-1.726-.348-2.919-1.902-2.88-3.566.485.269 1.038.43 1.626.449-1.599-1.069-2.051-3.18-1.111-4.794 1.77 2.172 4.416 3.601 7.4 3.751-.524-2.245 1.18-4.409 3.499-4.409 1.031 0 1.965.436 2.62 1.134.817-.16 1.588-.46 2.28-.871-.269.839-.838 1.541-1.579 1.986.726-.088 1.419-.28 2.061-.566-.48.723-1.087 1.355-1.791 1.861z" fill="#E46A4F"/></svg>