<svg width="1440" height="623" viewBox="0 0 1440 623" xmlns="http://www.w3.org/2000/svg" fill="none"><path d="M1453.5 464.5c-110.5-150.5-224.07-59.704-304.7-65.225-80.63-5.52-58.24-70.991-13.8-61.99 39.5 8 111.46 110.995-28.77 142.956-129.406 29.493-144.763-114.655-271.842-80.572-127.079 34.084-286.899 147.32-385.861 48.257-98.963-99.064-269.527-227.426-461.526-124.426" stroke="#F0E8DF"/><path d="M1094.34 492.066l-27.47-.804 19.25 19.61-23.39-14.43 6.87 26.608-13.04-24.189-7.36 26.475.81-27.467-19.61 19.248 14.43-23.384-26.61 6.864 24.19-13.037-26.48-7.358 27.47.804-19.25-19.61 23.38 14.43-6.86-26.608 13.04 24.189 7.36-26.475-.81 27.467 19.61-19.248-14.43 23.384 26.61-6.864-24.19 13.037 26.48 7.358zM308.342 356.652l-29.026-22.144 10.945 34.829-17.509-32.036-4.168 36.27-2.965-36.388-18.559 31.439 12.091-34.448-29.742 21.172 25.057-26.551-35.782 7.244 33.69-14.065-35.635-7.936 36.498.855-29.326-21.744 32.995 15.626-17.947-31.793 23.787 27.696-3.464-36.344 10.465 34.976 11.618-34.61-4.665 36.209 24.69-26.893-18.989 31.181 33.494-14.526-30.03 20.762 36.506.354-35.878 6.752 33.207 15.172-35.523-8.425 24.165 27.366z" fill="#F0E8DF"/></svg>