<svg width="320" height="88" viewBox="0 0 320 88" xmlns="http://www.w3.org/2000/svg" fill="none"><path d="M-7 63.794c8.5-28 58-11.945 74-33.5 15.887-21.403-15.5-30-22.5-12s-4.5 51 52 31.5 48.5-54.5 91.5-48 32.127 89.302 70 84c25-3.5 23.122-38.641 39-46 12.5-5.794 32 15 32.5 42.5" stroke="#F0E8DF"/><path d="M288.355 57.984l3.553-12.549-11.256 6.587 9.352-9.091-13.042.076 12.644-3.197-11.333-6.455 12.549 3.553-6.587-11.256 9.091 9.351-.076-13.042 3.197 12.644 6.455-11.332-3.553 12.549 11.256-6.587-9.351 9.091 13.041-.076-12.644 3.197 11.333 6.455-12.549-3.553 6.587 11.257-9.091-9.352.076 13.042-3.197-12.644-6.455 11.333zM-10.593 74.557l6.225-21.985-19.722 11.54 16.384-15.927-22.85.133 22.153-5.601-19.855-11.309 21.985 6.225-11.54-19.722 15.927 16.384-.133-22.849 5.601 22.153 11.309-19.855-6.225 21.986 19.722-11.54-16.384 15.927 22.849-.133-22.153 5.601 19.855 11.309-21.985-6.225 11.54 19.722-15.927-16.384.133 22.849-5.601-22.153-11.309 19.855z" fill="#F0E8DF"/></svg>