<svg width="1440" height="698" viewBox="0 0 1440 698" xmlns="http://www.w3.org/2000/svg" fill="none"><path d="M1450.5 375.968c-63-83.715-174.07-16.204-254.7-21.724-80.63-5.521-58.24-70.991-13.8-61.991 39.5 8 111.46 110.996-28.77 142.957-129.41 29.493-140.98-66.968-271.843-80.573-83.387-8.668-252.887 144.331-385.861 48.257-113.5-82.005-312.526-158.51-387.026-110.641-74.5 47.869 0 230.747 26.5 209.247 22.772-18.476-26.5-86-144-30.532" stroke="#F0E8DF"/><path d="M311.945 337.255l-29.026-22.144 10.945 34.829-17.509-32.036-4.167 36.27-2.966-36.388-18.559 31.439 12.091-34.448-29.742 21.172 25.057-26.551-35.782 7.244 33.69-14.065-35.635-7.936 36.498.855-29.326-21.744 32.995 15.626-17.947-31.792 23.787 27.695-3.464-36.344 10.466 34.976 11.617-34.61-4.665 36.209 24.69-26.893-18.989 31.181 33.494-14.526-30.03 20.762 36.506.354-35.878 6.752 33.207 15.172-35.523-8.425 24.165 27.366zM1107.84 472.533l6.6-23.279-20.89 12.219 17.35-16.864-24.19.141 23.45-5.931-21.02-11.975 23.28 6.592-12.22-20.882 16.87 17.348-.15-24.194 5.93 23.456 11.98-21.023-6.59 23.279 20.88-12.219-17.35 16.864 24.2-.141-23.46 5.931 21.02 11.975-23.28-6.592 12.22 20.882-16.86-17.348.14 24.194-5.93-23.456-11.98 21.023z" fill="#F0E8DF"/></svg>