<svg width="1440" height="395" viewBox="0 0 1440 395" fill="none" xmlns="http://www.w3.org/2000/svg">
<path d="M-15 302C-13.5 225 45 183.5 93 194C141 204.5 263.5 358 183 379.5C104.794 400.387 107 103 169 87.5C271 62 291.262 320.356 413 347C561.5 379.5 625.211 17.8885 772 40.9999C889.5 59.4998 801.5 305 905 322C1008.5 339 1019.83 163.779 1107.5 138.5C1189 115 1391 288.5 1257 379.5C1123 470.5 1161 109 1305 74.9999C1420.2 47.7999 1483 122.333 1500 163" stroke="#F0E8DF"/>
<path d="M1349.97 117.134L1319.41 93.82L1330.93 130.489L1312.5 96.7609L1308.11 134.947L1304.99 96.6366L1285.45 129.736L1298.18 93.4686L1266.86 115.759L1293.24 87.8046L1255.57 95.4314L1291.04 80.6239L1253.52 72.2685L1291.95 73.1683L1261.07 50.2754L1295.81 66.7268L1276.92 33.2548L1301.96 62.4133L1298.31 24.1497L1309.33 60.9735L1321.56 24.5346L1316.65 62.6565L1342.65 34.3428L1322.65 67.1711L1357.92 51.8784L1326.3 73.7369L1364.74 74.1094L1326.96 81.2185L1361.92 97.1918L1324.52 88.3223L1349.97 117.134Z" fill="#B5CFD3"/>
<path d="M266.378 149.67L247.466 135.919L251.576 158.938L242.073 137.573L234.123 159.563L236.575 136.309L218.695 151.378L232.446 132.466L209.427 136.576L230.792 127.073L208.802 119.123L232.056 121.575L216.987 103.696L235.899 117.446L231.789 94.4276L241.292 115.792L249.242 93.8023L246.79 117.056L264.67 101.987L250.919 120.9L273.938 116.79L252.573 126.293L274.563 134.243L251.309 131.79L266.378 149.67Z" fill="#B5CFD3"/>
</svg>
