<svg width="116" height="116" viewBox="0 0 116 116" xmlns="http://www.w3.org/2000/svg" fill="none"><path d="M61.084 40.518l.154 1.568.778-1.37 17.084-30.065-10.911 32.813-.497 1.495 1.268-.935 27.835-20.517-23.314 25.538-1.062 1.164 1.539-.338 33.774-7.421-31.686 13.848-1.444.631 1.543.317 33.873 6.957-34.579-.237-1.576-.011 1.281.917 28.114 20.133-31.492-14.281-1.435-.651.797 1.359 17.495 29.827-22.962-25.856-1.046-1.178.175 1.566 3.85 34.365-10.46-32.96-.477-1.502-.477 1.502-10.46 32.96 3.85-34.365.175-1.566-1.046 1.178-22.961 25.856 17.495-29.827.797-1.359-1.435.651-31.493 14.281 28.114-20.133 1.281-.917-1.575.011-34.579.237 33.873-6.957 1.543-.317-1.444-.631-31.686-13.848 33.774 7.421 1.539.338-1.062-1.164-23.314-25.538 27.835 20.517 1.268.935-.497-1.495-10.911-32.813 17.084 30.065.778 1.37.154-1.568 3.379-34.414 3.379 34.414z" stroke="#F0E8DF"/></svg>