<svg width="122" height="121" viewBox="0 0 122 121" xmlns="http://www.w3.org/2000/svg" fill="none"><path d="M60.679 0l4.075 41.508 20.606-36.262-13.16 39.577 33.574-24.746-28.12 30.803 40.735-8.951-38.217 16.702 40.855 8.391-41.707-.286 33.91 24.283-37.985-17.225 21.101 35.976-27.695-31.186 4.644 41.448-12.616-39.754-12.616 39.754 4.644-41.448-27.695 31.186 21.101-35.976-37.985 17.225 33.91-24.283-41.707.286 40.855-8.391-38.217-16.702 40.736 8.951-28.12-30.803 33.573 24.746-13.16-39.577 20.605 36.262 4.075-41.508z" fill="#F0E8DF"/></svg>