<svg width="192" height="206" viewBox="0 0 192 206" xmlns="http://www.w3.org/2000/svg" fill="none"><path d="M101.86 71.085l.153 1.688.787-1.501 30.071-57.297-19.223 62.592-.475 1.547 1.265-1.009 49.11-39.192-41.184 48.844-.978 1.16 1.476-.351 59.74-14.213-56.088 26.54-1.318.624 1.423.316 59.979 13.339-61.213-.455-1.479-.011 1.168.906 49.724 38.553-55.638-27.317-1.406-.691.746 1.378 30.862 56.969-40.458-49.326-1.055-1.287.171 1.655 6.777 65.488-18.401-62.78-.48-1.637-.48 1.637-18.401 62.78 6.777-65.488.171-1.655-1.055 1.287-40.458 49.326 30.862-56.969.746-1.378-1.406.691-55.638 27.317 49.724-38.553 1.169-.906-1.479.011-61.214.455 59.979-13.339 1.423-.316-1.318-.624-56.089-26.54 59.74 14.213 1.476.351-.978-1.16-41.183-48.844 49.109 39.192 1.265 1.009-.475-1.547-19.223-62.592 30.071 57.297.788 1.501.153-1.688 5.943-65.548 5.944 65.548z" stroke="#FEFBF6"/></svg>