<svg width="17" height="17" viewBox="0 0 17 17" fill="none" xmlns="http://www.w3.org/2000/svg">
<path fill-rule="evenodd" clip-rule="evenodd" d="M12.6391 0.708496C14.1684 0.708496 15.4101 1.9502 15.4101 3.4795C15.4101 3.75929 15.3726 4.6865 14.5637 5.47204L8.56762 11.4681C8.14545 11.9434 7.06595 12.374 6.23083 11.5382C5.39641 10.7045 5.81574 9.63633 6.29316 9.20779L9.4162 6.08475L9.91699 6.58554L7.67583 8.826L7.68574 8.82812L6.68628 9.829L6.68912 9.83112C6.00203 10.6464 7.12687 11.9065 8.08949 10.9446L14.0275 5.00595C14.4921 4.54412 14.6933 4.01925 14.6933 3.4795C14.6933 2.34545 13.7732 1.42533 12.6391 1.42533C12.0845 1.42533 11.5802 1.64562 11.2097 2.00475L11.2076 2.00262C10.8017 2.4085 3.06033 10.1442 3.03766 10.1676L3.03624 10.1662C2.47312 10.7413 2.12533 11.5283 2.12533 12.396C2.12533 14.1548 3.55403 15.5835 5.31283 15.5835C5.77324 15.5835 6.61616 15.5885 7.80616 14.402L15.0829 7.12954L15.5837 7.63033L8.16245 15.0515C7.45128 15.8144 6.43766 16.2918 5.31283 16.2918C3.16303 16.2918 1.41699 14.5458 1.41699 12.396C1.41699 11.279 1.88874 10.271 2.64312 9.55983C10.1996 2.00404 10.3179 1.8822 10.6437 1.55779C10.84 1.36087 11.5044 0.708496 12.6391 0.708496Z" fill="#282828"/>
</svg>
