<svg width="16" height="16" viewBox="0 0 16 16" xmlns="http://www.w3.org/2000/svg" fill="none"><path fill-rule="evenodd" clip-rule="evenodd" d="M10.569 11.04c-1.122 1.011-2.607 1.627-4.235 1.627-3.495 0-6.333-2.838-6.333-6.333s2.838-6.333 6.333-6.333 6.333 2.838 6.333 6.333c0 1.628-.615 3.113-1.627 4.235l4.96 4.96-.471.471-4.96-4.96zm-4.235-10.373c3.127 0 5.667 2.539 5.667 5.667 0 3.127-2.539 5.667-5.667 5.667-3.127 0-5.667-2.539-5.667-5.667 0-3.127 2.539-5.667 5.667-5.667z" fill="#282828"/></svg>