<svg width="95" height="95" viewBox="0 0 95 95" xmlns="http://www.w3.org/2000/svg" fill="none"><circle r="2.972" transform="matrix(1 0 0 -1 47.717 47.671)" fill="#E73E1B"/><path d="M83.497 54.489c.074-.63.206-.91.527-.877l.9.091.001-.01 3.726.375c.31.031.37.267.425.66l.414.042.238-2.37-.414-.042c-.133.384-.239.603-.549.572l-4.647-.467c-.207-.021-.3-.135-.364-.329l.007-.282.205-2.039c.106-.219.222-.333.449-.31l4.647.467c.31.031.37.267.425.66l.414.042.239-2.37-.414-.042c-.133.384-.238.603-.549.572l-4.647-.468c-.3-.03-.37-.267-.424-.67l-.393-.04-.414 4.119c-.232 2.308-.683 2.012-1.801 1.899-.073-.007-.118.03-.125.102l-.037.362 2.024.455c.083.008.127-.019.136-.101zM87.235 63.05l.692-2.279-.398-.121c-.204.351-.351.546-.649.455l-.239-.073-2.29-3.805 3.394 1.031c.299.091.312.334.289.729l.398.121.692-2.279-.398-.121c-.204.351-.351.546-.649.455l-4.469-1.358c-.289-.088-.312-.334-.286-.739l-.378-.115-.692 2.279.378.115c.201-.341.358-.533.646-.445l.308.094 2.29 3.805-3.464-1.052c-.289-.088-.312-.334-.286-.739l-.378-.115-.692 2.279.378.115c.201-.341.358-.533.646-.445l4.469 1.358c.299.091.312.334.289.729l.398.121zM79.752 65.8c-.758 1.423-.373 2.759.765 3.366 1.129.601 2.472.138 3.206-1.239l.2-.376.064.034c.275.147.241.388.143.772l.367.196 1.12-2.103-.367-.196c-.264.296-.449.468-.725.321l-.064-.034.186-.349c.734-1.377.368-2.75-.761-3.352-1.139-.606-2.462-.179-3.22 1.244l-.181.34-.083-.044c-.266-.142-.236-.397-.138-.781l-.349-.186-1.12 2.103.349.186c.263-.296.454-.454.72-.312l.083.044-.195.367zm1.294-1.456c.484-.909 1.465-.87 2.273-.44.79.42 1.364 1.268.923 2.095l-.176.331-3.177-1.692.156-.294zm2.292 3.354c-.44.826-1.464.823-2.254.403-.808-.43-1.388-1.222-.904-2.131l.171-.321 3.177 1.692-.191.358zM82.629 71.708l-.325-.26c-.321.25-.529.376-.772.181l-3.643-2.924c-.235-.189-.165-.426.009-.793l-.308-.247-1.491 1.858.308.247c.314-.242.53-.362.765-.173l1.225.983-.677.844c-1.061 1.322-1.109 2.645-.151 3.413.965.775 2.194.441 3.19-.801l1.869-2.328zm-3.841-.815l2.369 1.901-.853 1.063c-.566.706-1.267.598-1.972.031-.681-.547-.976-1.21-.312-2.038l.768-.957zM71.222 79.062c1.269 1.447 3.258 1.585 4.603.405 1.361-1.194 1.503-3.145.207-4.623-1.351-1.541-3.318-1.67-4.679-.476-1.345 1.18-1.427 3.216-.131 4.695zm.546-4.173c.727-.638 2.273-.374 3.508 1.033 1.255 1.431 1.032 2.36.172 3.115-.735.645-2.214.378-3.469-1.053-1.351-1.541-1-2.402-.21-3.095zM67.079 81.905c-.721.717-.745 1.461-.449 1.95.55.908 1.575.834 2.981-.018l2.589-1.568-.243-.4c-.388.162-.683.158-.807-.047l-2.355-3.888c-.124-.205-.036-.441.32-.777l-.253-.418c-.606.465-1.108.781-2.08 1.284l-.794.457c-1.386.803-1.897 1.867-1.262 2.917.426.703 1.258.953 2.352.509zm3.304.857l-1.121.679c-.73.442-1.267.317-1.601-.234-.388-.641-.321-1.192-.054-1.354l1.628-.986 1.148 1.895zm-3.044-4.444c.187-.113.366.022.484.217l1.18 1.949-.498.302c-1.486.9-2.263.762-2.737-.021-.528-.872-.209-1.369.627-1.876l.943-.571zM58.972 85.254c.696 1.794 2.517 2.605 4.185 1.958 1.687-.655 2.49-2.439 1.779-4.272-.742-1.91-2.545-2.706-4.233-2.051-1.668.647-2.443 2.533-1.731 4.365zm1.943-3.734c.902-.35 2.264.427 2.941 2.173.689 1.775.161 2.571-.906 2.985-.912.354-2.21-.403-2.898-2.178-.742-1.911-.116-2.6.863-2.98zM55.539 90.257c-.818.153-1.294.834-1.192 1.609.015.082.072.103.123.093l.276-.052c.072-.013.096-.05.091-.133-.014-.304.273-.633.846-.74.562-.105.96.096 1.056.385.026.08.062.105.134.091l.276-.052c.051-.01.096-.05.081-.132-.184-.759-.874-1.223-1.692-1.07zm-3.306-.42l2.342-.437-.076-.409c-.406-.02-.646-.059-.703-.366l-.046-.245 2.319-3.788.651 3.487c.057.307-.152.431-.514.593l.076.409 2.342-.437-.076-.409c-.406-.019-.646-.059-.703-.366l-.858-4.591c-.055-.297.152-.431.524-.595l-.073-.389-2.342.437.073.389c.395.021.638.071.693.368l.059.317-2.319 3.788-.665-3.559c-.055-.296.152-.431.524-.595l-.073-.389-2.342.437.073.389c.396.021.638.071.693.368l.858 4.591c.057.307-.152.431-.514.593l.076.409zM39.486 89.315l1.624.17 2.762-4.314 2.049 4.816 1.707.178.042-.403c-.385-.124-.586-.302-.553-.612l.479-4.583c.032-.31.259-.381.662-.433l.041-.393-1.873-.196-.041.393c.373.133.591.25.559.56l-.412 3.942-1.986-4.517c-.127-.285-.396-.313-.559-.058l-2.634 4.191.428-4.097c.032-.31.27-.38.652-.434l.041-.393-2.318-.242-.041.393c.383.134.56.247.527.557l-.479 4.583c-.032.31-.235.446-.637.488l-.042.403zM34.14 87.353c.013.191.122.326.244.421l.332.22 3.929-4.492c.339-.392.427-.395.934-.336l.135-.405-1.905-.634-.135.405c.451.26.579.434.398.648l-.934 1.092-2.3-.766-.135-1.503c-.02-.27-.003-.352.592-.263l.135-.405-2.28-.759-.135.405c.411.247.536.332.612 1.125l.512 5.247zm2.641-2.662l-1.67 1.955-.225-2.585 1.895.631zM24.364 83.06l2.082 1.158.202-.364c-.291-.269-.441-.448-.29-.721l.971-1.745 2.672 1.487-.971 1.745c-.152.273-.383.239-.765.134l-.202.364 2.082 1.158.202-.364c-.291-.269-.441-.448-.29-.721l2.271-4.081c.147-.264.383-.239.765-.134l.192-.346-2.082-1.158-.192.345c.291.269.436.457.29.721l-1.022 1.836-2.672-1.487 1.022-1.836c.147-.264.383-.239.765-.134l.192-.345-2.082-1.158-.192.345c.291.269.436.457.29.721l-2.271 4.081c-.152.273-.383.239-.765.134l-.202.364zM18.288 78.189l1.836 1.518.265-.321c-.245-.324-.368-.534-.169-.774l.159-.192 4.394-.646-2.26 2.734c-.199.24-.428.159-.785-.014l-.265.321 1.836 1.518.265-.321c-.245-.324-.368-.534-.17-.775l2.976-3.6c.192-.233.428-.159.793.021l.252-.305-1.836-1.518-.252.305c.237.317.354.535.161.768l-.205.248-4.394.646 2.307-2.79c.192-.232.428-.159.793.021l.252-.305-1.836-1.518-.252.305c.237.317.354.535.161.768l-2.976 3.6c-.199.24-.428.159-.785-.014l-.265.321zM18.629 70.221c-1.023-1.246-2.404-1.405-3.401-.586-.989.812-1.077 2.23-.087 3.436l.271.33-.056.046c-.241.198-.451.074-.767-.164l-.322.264 1.511 1.841.322-.264c-.172-.357-.259-.595-.018-.793l.056-.046.251.306c.99 1.206 2.398 1.397 3.387.585.997-.818 1.111-2.204.088-3.451l-.244-.297.072-.059c.233-.191.457-.066.774.172l.306-.251-1.511-1.841-.306.251c.172.357.245.593.011.785l-.072.059-.264-.322zm.847 1.754c.653.796.24 1.687-.467 2.267-.692.567-1.695.772-2.289.048l-.238-.29 2.782-2.283.211.257zm-3.977.828c-.594-.724-.198-1.668.494-2.235.708-.581 1.662-.812 2.315-.016l.231.281-2.782 2.283-.257-.314zM14.204 63.687l.431.073c.3.05.427.087.626.452l1.081 1.934-2.145 1.173-.854-1.561c-.165-.301-.016-.442.202-.715l-.125-.228-1.396.764.125.228c.357-.041.537-.08.702.221l.853 1.561-2.017 1.103-.819-1.497c-.215-.393-.261-.652-.071-.91l.226-.302-.21-.383-.977.534c-.137.075-.144.126-.079.245l2.271 4.153.365-.2c-.107-.392-.134-.614.139-.764l4.071-2.226c.265-.145.447-.007.709.3l.383-.21-2.321-4.244c-.065-.119-.203-.197-.36-.159-.332.087-.691.188-1.063.202l.25.456zM8.707 58.159l-1.841.757.092.266c.037.108.117.147.232.129.269-.049.523-.049.58.119-.323.53-.494 1.183-.191 2.058.547 1.583 2.306 2.439 4.106 1.817 1.986-.686 2.804-2.587 2.251-4.189-.421-1.219-1.213-1.76-2.018-1.922-.211-.037-.34-.059-.428.005-.098.067-.164.354-.127.462.057.134.235.139.516.218.591.181 1.085.495 1.336 1.222.377 1.091-.453 2.479-2.095 3.046-1.671.578-2.724-.016-3.071-1.019-.228-.659-.144-1.403.616-2.073l.306-.26c.095-.077.107-.169.03-.263l-.294-.372zM5.854 52.148c-.152.036-.229.144-.207.277l.831 4.976c.022.133.13.21.286.195l.999-.083-.057-.339-.364-.097c-.2-.062-.369-.191-.409-.427l-.211-1.262 4.935-.824c.298-.05.428.161.583.525l.39-.065-.394-2.36-.39.065c-.027.405-.082.646-.379.696l-4.935.824-.211-1.262c-.039-.236.079-.414.248-.537l.313-.21-.057-.339-.971.247zM9.013 41.335c-1.918-.163-3.446 1.116-3.598 2.899-.153 1.804 1.097 3.309 3.056 3.476 2.042.174 3.549-1.097 3.702-2.901.152-1.783-1.201-3.307-3.16-3.474zm2.499 3.386c-.082.964-1.378 1.845-3.244 1.687-1.897-.161-2.38-.985-2.283-2.126.083-.974 1.333-1.808 3.23-1.646 2.042.174 2.386 1.038 2.297 2.085zM9.514 34.549l-1.949-.402-.072.271c-.03.111.015.187.12.236.251.11.46.252.415.423-.564.258-1.071.705-1.31 1.599-.432 1.618.548 3.312 2.387 3.803 2.03.542 3.771-.576 4.209-2.214.333-1.246-.022-2.138-.598-2.722-.154-.149-.248-.239-.357-.235-.119.001-.334.202-.363.312-.027.143.117.247.305.469.389.48.622 1.017.424 1.76-.298 1.116-1.762 1.802-3.441 1.353-1.709-.456-2.249-1.537-1.975-2.562.18-.673.666-1.243 1.67-1.374l.399-.044c.121-.011.183-.08.172-.202l-.035-.472zM13.525 28.463c-1.743-.815-3.62-.142-4.378 1.479-.767 1.64-.113 3.484 1.668 4.317 1.856.868 3.71.196 4.476-1.444.758-1.621.015-3.519-1.766-4.351zm1.176 4.041c-.41.876-1.931 1.256-3.627.463-1.724-.806-1.893-1.747-1.409-2.783.414-.886 1.876-1.236 3.6-.43 1.856.868 1.881 1.798 1.436 2.75zM15.99 23.944c.138-.539-.019-1.146-.546-1.518-.561-.396-1.649-.297-2.476.876-.516.731-.461 1.304-.325 1.833-.09.128-.316.07-.527-.028-.105-.049-.192-.034-.258.06l-.192.272 1.549 1.233.375-.334c.083-.081.114-.162.044-.262l-.248-.353c-.516-.784-.428-1.486-.033-2.047.402-.57.939-.7 1.475-.322.544.384.667.967.473 1.784l-.113.468.467.113.127-.432c.038-.126.105-.257.177-.359.336-.476 1.039-.642 1.71-.169.859.606.882 1.475.402 2.155-.51.723-1.081.918-1.78.756-.645-.15-.887-.422-1.162-.03-.174.247-.163.483.186.729.859.606 2.164.253 3.153-1.149.833-1.182.819-2.732-.294-3.517-.893-.63-1.87-.326-2.183.243zM20.177 15.445l-1.691 1.678.293.295c.339-.205.553-.3.773-.078l1.407 1.417-2.171 2.155-1.407-1.418c-.22-.221-.123-.434.084-.772l-.293-.295-1.69 1.678.293.295c.339-.205.553-.3.773-.078l3.291 3.315c.213.214.123.434-.084.772l.279.28 1.691-1.678-.279-.281c-.339.205-.56.292-.773.078l-1.48-1.491 2.171-2.155 1.48 1.491c.213.214.123.434-.084.772l.279.28 1.691-1.678-.279-.281c-.339.205-.56.292-.773.078l-3.291-3.315c-.22-.221-.123-.434.084-.772l-.293-.295zM24.452 12.782c-.16-.105-.333-.101-.482-.063l-.377.13 1.178 5.85c.105.507.054.579-.301.946l.239.353 1.662-1.127-.239-.353c-.48.2-.697.196-.757-.078l-.3-1.406 2.006-1.36 1.276.806c.226.148.282.211-.151.63l.239.353 1.989-1.349-.239-.353c-.446.177-.59.224-1.265-.198l-4.477-2.783zm.509 3.715l-.537-2.515 2.19 1.393-1.653 1.121zM33.725 7.645l-2.183.952.166.381c.39-.068.624-.079.748.207l.799 1.831-2.803 1.223-.799-1.831c-.125-.286.042-.45.358-.689l-.166-.381-2.183.952.166.381c.39-.068.624-.079.748.207l1.867 4.281c.121.277-.042.45-.358.689l.158.362 2.183-.952-.158-.362c-.39.068-.628.07-.748-.207l-.84-1.926 2.803-1.223.84 1.926c.121.277-.042.45-.357.689l.158.362 2.184-.953-.158-.362c-.39.068-.628.07-.748-.207l-1.868-4.281c-.125-.286.042-.45.358-.689l-.166-.381zM41.489 5.73l-2.323.526.092.406c.396.006.628.039.697.343l.441 1.948-2.983.676-.441-1.948c-.069-.304.126-.434.48-.61l-.092-.406-2.323.526.092.406c.396.006.628.039.697.343l1.032 4.555c.067.294-.126.434-.48.61l.087.385 2.323-.526-.087-.386c-.396-.006-.63-.049-.697-.344l-.464-2.049 2.983-.676.464 2.049c.067.294-.126.434-.48.61l.087.386 2.323-.526-.087-.386c-.396-.006-.63-.049-.697-.343l-1.032-4.555c-.069-.304.126-.434.48-.61l-.092-.406zM49.141 8.487c-.074-1.923-1.532-3.283-3.32-3.214-1.809.07-3.149 1.496-3.073 3.46.079 2.048 1.526 3.387 3.334 3.317 1.788-.069 3.134-1.599 3.058-3.564zm-3.053 2.897c-.967.037-2.001-1.141-2.074-3.012-.073-1.902.685-2.483 1.828-2.527.977-.038 1.958 1.101 2.031 3.003.079 2.048-.736 2.496-1.786 2.536zM53.99 4.831c.823.121 1.495-.368 1.65-1.134.012-.082-.035-.121-.086-.128l-.278-.041c-.072-.011-.108.016-.13.097-.085.292-.464.51-1.041.425-.566-.083-.877-.403-.874-.707.002-.084-.024-.119-.097-.13l-.278-.041c-.051-.008-.107.016-.12.098-.073.778.429 1.441 1.252 1.562zm2.99 1.471l-2.357-.347-.061.412c.378.15.592.266.546.575l-.036.247-3.424 2.829.517-3.509c.046-.309.284-.358.678-.394l.061-.412-2.357-.347-.061.412c.378.15.592.266.546.575l-.681 4.621c-.044.298-.284.358-.689.393l-.058.391 2.357.347.058-.391c-.367-.149-.58-.275-.536-.573l.047-.319 3.424-2.828-.528 3.581c-.044.299-.284.358-.689.393l-.058.391 2.357.347.058-.391c-.367-.149-.58-.275-.536-.573l.681-4.621c.046-.309.284-.358.678-.394l.061-.412zM65.9 12.668l2.347-1.128c.373-.179.435.15.675.518.221.359.678.197.831-.123.148-.31-.058-.627-.631-.9-.488-.233-.997-.084-1.486.167l-1.899.985c-.336.174-.559.183-.7.139l.886-1.859c.121-.254.377-.235.817-.095l.184-.385-2.282-1.088-.183.385c.386.253.571.445.45.699l-.886 1.859c-.123-.081-.261-.251-.342-.636l-.43-2.095c-.112-.538-.317-1.027-.796-1.255-.582-.278-.949-.233-1.097.076-.152.319.01.777.428.722.427-.05.722-.209.818.194l.601 2.534-2.807 1.174c-.845.346-1.09.425-1.563.257l-.184.385 2.329 1.11.184-.385c-.24-.172-.384-.402-.066-.539l2.599-1.077.085.04-.909 1.906c-.103.216-.391.24-.827.09l-.184.385 2.282 1.088.184-.385c-.391-.244-.544-.478-.441-.694l.909-1.906.085.04.781 2.689c.095.333-.165.371-.45.292l-.184.385 2.329 1.11.184-.385c-.419-.257-.521-.502-.784-1.377l-.855-2.92zM76.409 16.466l-1.869-1.477-.258.326c.252.319.38.526.186.771l-.155.196-4.379.742 2.2-2.783c.194-.245.425-.168.785-.003l.258-.326-1.869-1.477-.258.326c.252.319.38.526.186.771l-2.897 3.664c-.187.237-.425.168-.793-.004l-.245.31 1.869 1.477.245-.31c-.244-.312-.365-.527-.178-.764l.2-.253 4.379-.742-2.245 2.84c-.187.237-.425.168-.793-.004l-.245.31 1.869 1.477.245-.31c-.244-.312-.365-.528-.178-.764l2.897-3.664c.194-.245.425-.168.785-.003l.258-.326zM78.08 22.224c.493.257 1.121.242 1.602-.187.513-.456.664-1.538-.29-2.611-.595-.668-1.165-.746-1.711-.733-.104-.117.004-.324.147-.507.072-.092.077-.18.001-.265l-.221-.249-1.552 1.229.24.441c.061.099.131.148.245.103l.4-.161c.881-.325 1.544-.08 2.001.433.463.521.468 1.073-.022 1.509-.497.443-1.094.43-1.845.055l-.43-.217-.216.429.392.222c.114.066.226.16.309.254.387.435.39 1.157-.224 1.704-.785.698-1.637.524-2.19-.098-.588-.661-.649-1.261-.331-1.906.293-.595.612-.768.294-1.125-.201-.225-.434-.268-.752.015-.785.698-.738 2.05.403 3.332.961 1.08 2.474 1.419 3.492.513.816-.726.743-1.747.26-2.181zM85.419 28.268l-1.249-2.028-.354.218c.122.377.166.607-.1.77l-1.701 1.047-1.604-2.604 1.701-1.047c.266-.164.451-.021.733.257l.354-.218-1.249-2.028-.354.218c.122.377.166.607-.1.77l-3.977 2.449c-.257.158-.451.021-.733-.257l-.337.207 1.249 2.028.337-.207c-.122-.377-.157-.612.1-.77l1.789-1.102 1.604 2.604-1.789 1.102c-.257.158-.451.021-.733-.257l-.337.207 1.249 2.028.337-.207c-.122-.377-.157-.612.1-.77l3.977-2.449c.266-.164.451-.021.733.257l.354-.218zM88.335 35.498l-.854-2.224-.389.149c.054.403.059.646-.233.758l-.233.09-4.145-1.596 3.312-1.271c.291-.112.451.072.676.398l.389-.149-.854-2.224-.389.149c.054.403.059.646-.233.758l-4.361 1.674c-.282.108-.451-.072-.68-.407l-.369.142.853 2.224.369-.142c-.05-.393-.045-.64.237-.748l.301-.116 4.145 1.596-3.38 1.297c-.282.108-.451-.072-.68-.408l-.369.142.854 2.224.369-.142c-.05-.393-.045-.64.237-.748l4.361-1.674c.291-.112.451.072.676.398l.389-.149zM85.386 41.129c.055.339.39.579.739.523.349-.057.59-.391.534-.73-.055-.339-.39-.579-.739-.523-.349.057-.59.391-.534.73z" fill="#E46A4F"/></svg>